<?xml version="1.0" encoding="UTF-8"?>
<svg xmlns="http://www.w3.org/2000/svg" width="1080" height="1080" viewBox="0 0 1080 1080">
  <defs>
    <linearGradient id="brandBg" x1="0" y1="0" x2="1" y2="1">
      <stop offset="0" stop-color="#fff7ed"/>
      <stop offset="0.46" stop-color="#fff"/>
      <stop offset="1" stop-color="#ffe4e6"/>
    </linearGradient>
    <linearGradient id="saleGrad" x1="0" y1="0" x2="1" y2="1">
      <stop offset="0" stop-color="#e11d48"/>
      <stop offset="1" stop-color="#f97316"/>
    </linearGradient>
    <linearGradient id="coolGrad" x1="0" y1="0" x2="1" y2="1">
      <stop offset="0" stop-color="#2563eb"/>
      <stop offset="1" stop-color="#10b981"/>
    </linearGradient>
    <filter id="softShadow" x="-20%" y="-20%" width="140%" height="150%">
      <feDropShadow dx="0" dy="16" stdDeviation="18" flood-color="#9f1239" flood-opacity="0.18"/>
    </filter>
  </defs>
  <rect width="1080" height="1080" fill="url(#brandBg)"/>
  
    
  <circle cx="990" cy="80" r="150" fill="#fbbf24" opacity="0.18"/>
  <circle cx="820" cy="1040" r="190" fill="#10b981" opacity="0.14"/>
  <path d="M560,42 C770,80 830,190 1028,156" fill="none" stroke="#e11d48" stroke-width="18" opacity="0.08" stroke-linecap="round"/>
  <path d="M72,1010 C250,935 410,1060 570,968" fill="none" stroke="#2563eb" stroke-width="14" opacity="0.08" stroke-linecap="round"/>
  
    <rect x="72" y="72" width="246" height="54" rx="27" fill="#fff" stroke="#fecdd3"/>
    <text x="102" y="108" font-family="Inter, Arial, sans-serif" font-size="24" font-weight="900" fill="#e11d48">GIA DỤNG</text>
    <text x="72" y="204" font-family="Inter, Arial, sans-serif" font-size="30" font-weight="900" fill="#0f172a">Tạp Hóa Giảm Giá</text>
    <text x="72" y="302" font-size="74" font-family="Inter, Arial, sans-serif" font-weight="900" fill="#0f172a">Deal gia dụng dưới 500K</text>
    <text x="72" y="742" font-size="31" font-family="Inter, Arial, sans-serif" font-weight="650" fill="#475569">Bình giữ nhiệt, hộp đựng, đèn bàn</text>
    
  <g transform="translate(644 604) scale(1.18)" filter="url(#softShadow)">
    <path d="M32 0h168c14 0 26 12 26 26v120c0 14-12 26-26 26H32L0 86 32 0Z" fill="url(#saleGrad)"/>
    <circle cx="46" cy="86" r="15" fill="#fff" opacity="0.95"/>
    <text x="84" y="75" fill="#fff" font-family="Inter, Arial, sans-serif" font-size="44" font-weight="900">%</text>
    <text x="82" y="122" fill="#fff" font-family="Inter, Arial, sans-serif" font-size="28" font-weight="800">SALE</text>
  </g>
    
  <g transform="translate(676 302) scale(1.06)" filter="url(#softShadow)">
    <rect x="18" y="72" width="250" height="170" rx="34" fill="#fff"/>
    <path d="M60 96h166l-18 108H78L60 96Z" fill="#fee2e2"/>
    <path d="M80 74C92 24 128 0 144 0s52 24 64 74" fill="none" stroke="#0f172a" stroke-width="18" stroke-linecap="round"/>
    <rect x="88" y="126" width="112" height="18" rx="9" fill="#e11d48"/>
    <rect x="88" y="164" width="78" height="18" rx="9" fill="#f97316"/>
    <circle cx="88" cy="252" r="16" fill="#0f172a"/>
    <circle cx="204" cy="252" r="16" fill="#0f172a"/>
  </g>
    <rect x="72" y="952" width="310" height="56" rx="28" fill="#0f172a"/>
    <text x="106" y="988" font-family="Inter, Arial, sans-serif" font-size="24" font-weight="900" fill="#fff">taphoagiamgia.com</text>
  
</svg>