<?xml version="1.0" encoding="UTF-8"?>
<svg xmlns="http://www.w3.org/2000/svg" width="1600" height="700" viewBox="0 0 1600 700">
  <defs>
    <linearGradient id="brandBg" x1="0" y1="0" x2="1" y2="1">
      <stop offset="0" stop-color="#fff7ed"/>
      <stop offset="0.46" stop-color="#fff"/>
      <stop offset="1" stop-color="#ffe4e6"/>
    </linearGradient>
    <linearGradient id="saleGrad" x1="0" y1="0" x2="1" y2="1">
      <stop offset="0" stop-color="#e11d48"/>
      <stop offset="1" stop-color="#f97316"/>
    </linearGradient>
    <linearGradient id="coolGrad" x1="0" y1="0" x2="1" y2="1">
      <stop offset="0" stop-color="#2563eb"/>
      <stop offset="1" stop-color="#10b981"/>
    </linearGradient>
    <filter id="softShadow" x="-20%" y="-20%" width="140%" height="150%">
      <feDropShadow dx="0" dy="16" stdDeviation="18" flood-color="#9f1239" flood-opacity="0.18"/>
    </filter>
  </defs>
  <rect width="1600" height="700" fill="url(#brandBg)"/>
  
    
  <circle cx="1510" cy="80" r="150" fill="#fbbf24" opacity="0.18"/>
  <circle cx="1340" cy="660" r="190" fill="#10b981" opacity="0.14"/>
  <path d="M1080,42 C1290,80 1350,190 1548,156" fill="none" stroke="#e11d48" stroke-width="18" opacity="0.08" stroke-linecap="round"/>
  <path d="M72,630 C250,555 410,680 570,588" fill="none" stroke="#2563eb" stroke-width="14" opacity="0.08" stroke-linecap="round"/>
  
    <rect x="100" y="86" width="250" height="54" rx="27" fill="#fff" stroke="#fecdd3"/>
    <text x="132" y="122" font-family="Inter, Arial, sans-serif" font-size="24" font-weight="900" fill="#e11d48">TẠP HÓA GIẢM GIÁ</text>
    <text x="100" y="244" font-family="Inter, Arial, sans-serif" font-size="76" font-weight="900" fill="#0f172a">Săn deal tốt hơn,</text>
    <text x="100" y="330" font-family="Inter, Arial, sans-serif" font-size="84" font-weight="900" fill="#e11d48">mua sắm tiết kiệm hơn</text>
    <text x="104" y="398" font-family="Inter, Arial, sans-serif" font-size="32" font-weight="650" fill="#475569">Tổng hợp deal, mã giảm giá và mẹo mua rẻ mỗi ngày.</text>
    <g transform="translate(104 462)">
      <rect width="242" height="70" rx="35" fill="#0f172a"/>
      <text x="38" y="45" font-family="Inter, Arial, sans-serif" font-size="25" font-weight="900" fill="#fff">Xem deal hôm nay</text>
      <rect x="270" width="236" height="70" rx="35" fill="#fff" stroke="#fecdd3"/>
      <text x="308" y="45" font-family="Inter, Arial, sans-serif" font-size="25" font-weight="900" fill="#e11d48">Lấy mã giảm giá</text>
    </g>
    
  <g transform="translate(1090 220) scale(1.12)" filter="url(#softShadow)">
    <rect x="18" y="72" width="250" height="170" rx="34" fill="#fff"/>
    <path d="M60 96h166l-18 108H78L60 96Z" fill="#fee2e2"/>
    <path d="M80 74C92 24 128 0 144 0s52 24 64 74" fill="none" stroke="#0f172a" stroke-width="18" stroke-linecap="round"/>
    <rect x="88" y="126" width="112" height="18" rx="9" fill="#e11d48"/>
    <rect x="88" y="164" width="78" height="18" rx="9" fill="#f97316"/>
    <circle cx="88" cy="252" r="16" fill="#0f172a"/>
    <circle cx="204" cy="252" r="16" fill="#0f172a"/>
  </g>
    
  <g transform="translate(930 110) scale(0.92)" filter="url(#softShadow)">
    <path d="M32 0h168c14 0 26 12 26 26v120c0 14-12 26-26 26H32L0 86 32 0Z" fill="url(#saleGrad)"/>
    <circle cx="46" cy="86" r="15" fill="#fff" opacity="0.95"/>
    <text x="84" y="75" fill="#fff" font-family="Inter, Arial, sans-serif" font-size="44" font-weight="900">%</text>
    <text x="82" y="122" fill="#fff" font-family="Inter, Arial, sans-serif" font-size="28" font-weight="800">SALE</text>
  </g>
    
  <g transform="translate(1260 76)">
    <rect width="126" height="126" rx="28" fill="url(#saleGrad)" filter="url(#softShadow)"/>
    <path d="M27.72 40.32h70.56l-10.08 52.919999999999995h-50.400000000000006z" fill="#fff" opacity="0.94"/>
    <path d="M41.580000000000005 35.28c6.300000000000001-20.16 36.54-20.16 42.84 0" fill="none" stroke="#fff" stroke-width="8.82" stroke-linecap="round"/>
    <text x="63" y="84.42" text-anchor="middle" font-family="Inter, Arial, sans-serif" font-size="27.72" font-weight="900" fill="#e11d48">TGG</text>
  </g>
  
</svg>