<?xml version="1.0" encoding="UTF-8"?>
<svg xmlns="http://www.w3.org/2000/svg" width="1640" height="624" viewBox="0 0 1640 624">
  <defs>
    <linearGradient id="brandBg" x1="0" y1="0" x2="1" y2="1">
      <stop offset="0" stop-color="#fff7ed"/>
      <stop offset="0.46" stop-color="#fff"/>
      <stop offset="1" stop-color="#ffe4e6"/>
    </linearGradient>
    <linearGradient id="saleGrad" x1="0" y1="0" x2="1" y2="1">
      <stop offset="0" stop-color="#e11d48"/>
      <stop offset="1" stop-color="#f97316"/>
    </linearGradient>
    <linearGradient id="coolGrad" x1="0" y1="0" x2="1" y2="1">
      <stop offset="0" stop-color="#2563eb"/>
      <stop offset="1" stop-color="#10b981"/>
    </linearGradient>
    <filter id="softShadow" x="-20%" y="-20%" width="140%" height="150%">
      <feDropShadow dx="0" dy="16" stdDeviation="18" flood-color="#9f1239" flood-opacity="0.18"/>
    </filter>
  </defs>
  <rect width="1640" height="624" fill="url(#brandBg)"/>
  
    
  <circle cx="1550" cy="80" r="150" fill="#fbbf24" opacity="0.18"/>
  <circle cx="1380" cy="584" r="190" fill="#10b981" opacity="0.14"/>
  <path d="M1120,42 C1330,80 1390,190 1588,156" fill="none" stroke="#e11d48" stroke-width="18" opacity="0.08" stroke-linecap="round"/>
  <path d="M72,554 C250,479 410,604 570,512" fill="none" stroke="#2563eb" stroke-width="14" opacity="0.08" stroke-linecap="round"/>
  
    <rect x="96" y="88" width="156" height="48" rx="24" fill="#fff" stroke="#fecdd3"/>
    <text x="126" y="121" font-family="Inter, Arial, sans-serif" font-size="22" font-weight="800" fill="#e11d48">DEAL MỖI NGÀY</text>
    
  <g transform="translate(96 168)">
    <rect width="118" height="118" rx="26" fill="url(#saleGrad)" filter="url(#softShadow)"/>
    <path d="M25.96 37.76h66.08000000000001l-9.44 49.559999999999995h-47.2z" fill="#fff" opacity="0.94"/>
    <path d="M38.940000000000005 33.040000000000006c5.9-18.88 34.22-18.88 40.120000000000005 0" fill="none" stroke="#fff" stroke-width="8.260000000000002" stroke-linecap="round"/>
    <text x="59" y="79.06" text-anchor="middle" font-family="Inter, Arial, sans-serif" font-size="25.96" font-weight="900" fill="#e11d48">TGG</text>
  </g>
    <text x="244" y="220" font-family="Inter, Arial, sans-serif" font-size="72" font-weight="900" fill="#0f172a">Tạp Hóa</text>
    <text x="244" y="304" font-family="Inter, Arial, sans-serif" font-size="82" font-weight="900" fill="#e11d48">Giảm Giá</text>
    <text x="104" y="382" font-family="Inter, Arial, sans-serif" font-size="34" font-weight="700" fill="#475569">Săn deal thật - tiết kiệm mỗi ngày</text>
    <g transform="translate(104 424)">
      <rect width="186" height="50" rx="25" fill="#fff" stroke="#fecdd3"/>
      <text x="30" y="33" font-family="Inter, Arial, sans-serif" font-size="21" font-weight="800" fill="#0f172a">Mã giảm giá</text>
      <rect x="210" width="132" height="50" rx="25" fill="#fff" stroke="#fed7aa"/>
      <text x="240" y="33" font-family="Inter, Arial, sans-serif" font-size="21" font-weight="800" fill="#0f172a">Deal hot</text>
      <rect x="366" width="180" height="50" rx="25" fill="#fff" stroke="#bbf7d0"/>
      <text x="396" y="33" font-family="Inter, Arial, sans-serif" font-size="21" font-weight="800" fill="#0f172a">Mẹo mua rẻ</text>
    </g>
    
  <g transform="translate(1040 160) scale(1.08)" filter="url(#softShadow)">
    <rect x="18" y="72" width="250" height="170" rx="34" fill="#fff"/>
    <path d="M60 96h166l-18 108H78L60 96Z" fill="#fee2e2"/>
    <path d="M80 74C92 24 128 0 144 0s52 24 64 74" fill="none" stroke="#0f172a" stroke-width="18" stroke-linecap="round"/>
    <rect x="88" y="126" width="112" height="18" rx="9" fill="#e11d48"/>
    <rect x="88" y="164" width="78" height="18" rx="9" fill="#f97316"/>
    <circle cx="88" cy="252" r="16" fill="#0f172a"/>
    <circle cx="204" cy="252" r="16" fill="#0f172a"/>
  </g>
    
  <g transform="translate(880 90) scale(0.9)" filter="url(#softShadow)">
    <path d="M32 0h168c14 0 26 12 26 26v120c0 14-12 26-26 26H32L0 86 32 0Z" fill="url(#saleGrad)"/>
    <circle cx="46" cy="86" r="15" fill="#fff" opacity="0.95"/>
    <text x="84" y="75" fill="#fff" font-family="Inter, Arial, sans-serif" font-size="44" font-weight="900">%</text>
    <text x="82" y="122" fill="#fff" font-family="Inter, Arial, sans-serif" font-size="28" font-weight="800">SALE</text>
  </g>
    <g transform="translate(1200 380) rotate(8)" filter="url(#softShadow)">
      <rect width="230" height="140" rx="28" fill="#fff"/>
      <rect x="30" y="34" width="170" height="20" rx="10" fill="#2563eb"/>
      <rect x="30" y="74" width="126" height="20" rx="10" fill="#10b981"/>
    </g>
  
</svg>